<svg xmlns="http://www.w3.org/2000/svg" width="960" height="816.487" viewBox="0 0 960 816.487" xmlns:xlink="http://www.w3.org/1999/xlink" role="img" artist="Katerina Limpitsouni" source="https://undraw.co/"><g transform="translate(-573.024 -241.313)"><path d="M1096.313,704.626A181.812,181.812,0,0,0,802.847,561.139a196.734,196.734,0,0,0-336.3,68.92,146.721,146.721,0,1,0-97.477,256.377c2.28,0,4.546-.06,6.8-.162,2.328.1,4.667.162,7.02.162H933.641A159.493,159.493,0,0,0,1092.378,742.38a182.52,182.52,0,0,0,3.935-37.754Z" transform="translate(362.204 170.904)" fill="#D4AF37"/><path d="M938.759,869.173H388.011c-2.2,0-4.5-.053-7.02-.162-2.391.109-4.614.162-6.8.162l-.006-.618v.618a147.34,147.34,0,1,1,97.177-258.085A197.339,197.339,0,0,1,808.049,542.41a182.491,182.491,0,0,1,290.06,182.183,159.966,159.966,0,0,1-159.35,144.581Zm-557.769-1.4h.027c2.515.109,4.8.162,6.994.162H938.759a158.736,158.736,0,0,0,158.122-143.5l0-.034.007-.034A181.2,181.2,0,0,0,808.345,543.745l-.464.361-.384-.444a196.1,196.1,0,0,0-335.243,68.7l-.289.907-.711-.632a146.115,146.115,0,1,0-97.066,255.3h.006c2.171,0,4.384-.053,6.767-.162Z" transform="translate(363.269 166.524)" fill="#090814"/><path d="M867.233,619.573l-19.9,40.567S811.358,655.548,825.9,703c0,0-3.827,35.975-11.481,43.629s6.123,58.172,33.678,43.629c15.5-8.18,16.468-17.572,14.349-24.223a60.018,60.018,0,0,1-1.862-30.769c2.766-12.948,7.747-29.509,16.6-43.747,17.6-28.32,34.444-55.875,34.444-55.875Z" transform="translate(501.884 200.861)" fill="#9f616a"/><path d="M844.138,418.927s-43.629-10.716-58.172-3.062-57.406,8.42-57.406,8.42S692.585,482.457,701,512.308s43.629,48.221,43.629,48.221l118.64.766,19.135-78.073s-9.185-53.579-16.839-56.641S844.138,418.927,844.138,418.927Z" transform="translate(475.227 151.98)" fill="#090814"/><path d="M16.837,155.763,0,127.439S9.951,112.131,21.433,108.3c6.752-2.251,6.887-14.3,5.852-23.837A46.687,46.687,0,1,1,78.74,86.74q-.163,6.57.1,13.145c.765,12.246,13.011,8.419,13.011,8.419l13.009,9.188L91.852,153.464,74.244,170.306Z" transform="translate(1214.503 287.322)" fill="#9f616a"/><path d="M792.841,321.833l-44.394-40.567s-19.9,16.839-22.2,16.839-32.148,9.185-32.913,13.012,26.024,44.394,26.024,44.394-6.123,29.851,0,42.863,1.531,68.888,1.531,68.888,40.567-14.543,62-7.654,84.2,0,84.2,0,9.185-58.937,5.358-66.591-4.593-51.283-4.593-51.283l32.913-35.975s-6.889-27.555-32.913-29.086-42.1-3.062-42.1-3.062Z" transform="translate(473.711 118.954)" fill="#e6e6e6"/><path d="M768.808,477.338S683.081,438.3,648.637,419.931s-87.258-3.827-70.418,37.505,110.986,81.9,110.986,81.9,30.617,22.963,48.987,22.2,44.777-.383,44.777-.383Z" transform="translate(445.695 151.742)" fill="#090814"/><path d="M846.393,469.182s153.849,1.531,143.9,58.937S921.4,681.2,910.688,683.5s-49.752-14.543-49.752-19.9,37.505-104.1,37.505-104.1l-91.85-28.32Z" transform="translate(500.527 165.256)" fill="#090814"/><path d="M882.626,330.55s9.185,88.023,4.593,101.8S866.553,483.633,845.886,502s-49.752,110.986-65.826,66.591,26.024-68.888,26.024-68.888l42.2-59.371.4-96.622Z" transform="translate(493.38 132.434)" fill="#9f616a"/><path d="M726.85,479.7s75.776,26.79,84.2,22.963,26.79,9.95,26.79,9.95a65.983,65.983,0,0,1,49.752,9.185c24.493,16.074,29.851,34.444,24.493,35.209s-24.493-7.654-24.493-7.654-29.086-6.123-46.691-.765-40.549-5.938-40.549-5.938l-93.4-20.852Z" transform="translate(476.937 167.747)" fill="#9f616a"/><path d="M693.334,357.895s.765,94.912,12.247,106.393,23.728,26.79,35.209,33.678,17.6,22.963,17.6,22.963S813.5,601.3,814.27,564.558s-28.32-65.826-28.32-65.826l-5.692-5.421a258.579,258.579,0,0,1-33.617-38.588,40.234,40.234,0,0,0-8.146-8.8c-9.95-7.654-12.247-91.85-12.247-91.85Z" transform="translate(473.714 138.002)" fill="#9f616a"/><path d="M853.332,292.178l16.074,9.185s6.123,40.567,9.185,45.925-37.505,19.135-43.629,15.308-9.185-41.333-9.185-41.333Z" transform="translate(505.07 123.35)" fill="#e6e6e6"/><path d="M706.158,303.318h-9.95s-10.716,11.481-9.951,35.975-9.185,39.8-3.062,42.1,52.048-9.185,52.048-9.185l-10.716-40.567Z" transform="translate(470.839 125.987)" fill="#e6e6e6"/><path d="M650.078,430.192s46.69,19.9,59.7,22.963,55.067,38.888,55.067,38.888l-28.707,43.592s-29.422-3.642-45.5-6.7-111.751-66.591-95.677-77.307S650.078,430.192,650.078,430.192Z" transform="translate(449.996 156.025)" opacity="0.1"/><path d="M642.341,430.192s46.691,19.9,59.7,22.963,64.3,38.271,64.3,38.271L741.08,540.412s-42.1-8.419-58.172-11.481-111.751-66.591-95.677-77.307S642.341,430.192,642.341,430.192Z" transform="translate(448.164 156.025)" fill="#090814"/><path d="M960,.737H0V-.5H960Z" transform="translate(573.024 1057.063)" fill="#090814"/><path d="M69.746,138.263c-1.638-9.51,5.572-18.7,4.727-28.321-.753-8.477-7.437-14.991-13.11-21.336-4.1-4.579-8.014-10.223-8.9-16.051A42.163,42.163,0,0,0,32.2,64.97c-6.852-.643-14.085.525-19.7,4.5S3.252,80.54,4.555,87.3A15.839,15.839,0,0,1,7.847,62.5a25.848,25.848,0,0,1,5.5-24.383c5.858-6.463,29.607-5.35,38.157-3.657l-.663-1.127.018-.018c-1.256.733-2.956-.38-3.367-1.792a7.344,7.344,0,0,1,.526-4.291c.792-2.335,1.561-4.653,2.354-6.988C52.044,15.291,53.817,10.167,57.43,6.4,62.893.716,71.593-.736,79.409.318,89.444,1.676,99.353,7.1,104.022,16.1s2.676,21.54-5.76,27.153c12.03,13.787,16.213,29.153,15.55,47.421-.655,18.286-20.58,35.1-33.575,47.982a3.587,3.587,0,0,1-.309-.212A27.277,27.277,0,0,0,88.1,151.013a13.841,13.841,0,0,1-2.579.24C78.186,151.253,70.994,145.6,69.746,138.263Z" transform="translate(1219.443 241.313)" fill="#090814"/></g></svg>