<svg xmlns="http://www.w3.org/2000/svg" xmlns:xlink="http://www.w3.org/1999/xlink" width="2000" zoomAndPan="magnify" viewBox="0 0 1500 1499.999933" height="2000" preserveAspectRatio="xMidYMid meet" version="1.0"><defs><g/><clipPath id="3e8e12d6d3"><path d="M 701.25 705.574219 L 781.074219 705.574219 L 781.074219 750 L 701.25 750 Z M 701.25 705.574219 " clip-rule="nonzero"/></clipPath><clipPath id="e84c45cd46"><path d="M 716.054688 705.574219 L 766.253906 705.574219 L 781.0625 750 L 701.25 750 Z M 716.054688 705.574219 " clip-rule="nonzero"/></clipPath><clipPath id="988678e9ac"><path d="M 0.25 0.574219 L 80.074219 0.574219 L 80.074219 45 L 0.25 45 Z M 0.25 0.574219 " clip-rule="nonzero"/></clipPath><clipPath id="b95a829f45"><path d="M 15.054688 0.574219 L 65.253906 0.574219 L 80.0625 45 L 0.25 45 Z M 15.054688 0.574219 " clip-rule="nonzero"/></clipPath><clipPath id="ce719c30c7"><rect x="0" width="81" y="0" height="45"/></clipPath><clipPath id="1a38435c71"><path d="M 1067.582031 705.574219 L 1147.40625 705.574219 L 1147.40625 750 L 1067.582031 750 Z M 1067.582031 705.574219 " clip-rule="nonzero"/></clipPath><clipPath id="c19e9e60f4"><path d="M 1082.390625 705.574219 L 1132.585938 705.574219 L 1147.394531 750 L 1067.582031 750 Z M 1082.390625 705.574219 " clip-rule="nonzero"/></clipPath><clipPath id="685cf1718f"><path d="M 0.582031 0.574219 L 80.40625 0.574219 L 80.40625 45 L 0.582031 45 Z M 0.582031 0.574219 " clip-rule="nonzero"/></clipPath><clipPath id="ec84d3cdde"><path d="M 15.390625 0.574219 L 65.585938 0.574219 L 80.394531 45 L 0.582031 45 Z M 15.390625 0.574219 " clip-rule="nonzero"/></clipPath><clipPath id="b48c3a718c"><rect x="0" width="81" y="0" height="45"/></clipPath></defs><g fill="#ffffff" fill-opacity="1"><g transform="translate(215.220747, 807.079902)"><g><path d="M 28.375 0 L 28.375 -215.75 L 160.25 -215.75 L 160.25 -189.71875 L 57.21875 -189.71875 L 57.21875 -126.734375 L 145.296875 -126.734375 L 145.296875 -100.546875 L 57.21875 -100.546875 L 57.21875 -26.1875 L 160.25 -26.1875 L 160.25 0 Z M 28.375 0 "/></g></g><g transform="translate(394.964592, 807.079902)"><g><path d="M 193.765625 -37.71875 C 186.910156 -26.707031 179.921875 -18.367188 172.796875 -12.703125 C 165.679688 -7.035156 157.394531 -2.75 147.9375 0.15625 C 138.476562 3.0625 127.359375 4.515625 114.578125 4.515625 C 82.253906 4.515625 58.425781 -4.804688 43.09375 -23.453125 C 27.769531 -42.109375 20.109375 -70.25 20.109375 -107.875 C 20.109375 -145.394531 27.71875 -173.507812 42.9375 -192.21875 C 58.164062 -210.925781 81.628906 -220.28125 113.328125 -220.28125 C 125.910156 -220.28125 137.132812 -218.71875 147 -215.59375 C 156.875 -212.476562 165.210938 -208.191406 172.015625 -202.734375 C 178.828125 -197.273438 185.039062 -189.613281 190.65625 -179.75 L 166.953125 -164.15625 C 162.378906 -171.84375 157.753906 -177.6875 153.078125 -181.6875 C 148.398438 -185.6875 142.785156 -188.851562 136.234375 -191.1875 C 129.691406 -193.53125 122.054688 -194.703125 113.328125 -194.703125 C 91.710938 -194.703125 75.835938 -187.503906 65.703125 -173.109375 C 55.578125 -158.722656 50.515625 -136.976562 50.515625 -107.875 C 50.515625 -79.1875 55.5 -57.539062 65.46875 -42.9375 C 75.445312 -28.34375 91.503906 -21.046875 113.640625 -21.046875 C 125.910156 -21.046875 136.566406 -23.460938 145.609375 -28.296875 C 154.648438 -33.128906 162.753906 -41.46875 169.921875 -53.3125 Z M 193.765625 -37.71875 "/></g></g></g><g fill="#ffffff" fill-opacity="1"><g transform="translate(575.595224, 967.874897)"><g><path d="M 252.734375 -158.359375 L 166.09375 -328.1875 L 78.640625 -158.359375 L 38.125 -158.359375 L 145.828125 -368.984375 L 185.5625 -368.984375 L 293.265625 -158.359375 Z M 252.734375 -158.359375 "/></g></g></g><g fill="#ffffff" fill-opacity="1"><g transform="translate(906.978008, 967.874897)"><g/></g></g><g clip-path="url(#3e8e12d6d3)"><g clip-path="url(#e84c45cd46)"><g transform="matrix(1, 0, 0, 1, 701, 705)"><g clip-path="url(#ce719c30c7)"><g clip-path="url(#988678e9ac)"><g clip-path="url(#b95a829f45)"><path fill="#e81c17" d="M 0.25 0.574219 L 80.074219 0.574219 L 80.074219 45 L 0.25 45 Z M 0.25 0.574219 " fill-opacity="1" fill-rule="nonzero"/></g></g></g></g></g></g><g fill="#ffffff" fill-opacity="1"><g transform="translate(875.825454, 813.607734)"><g><path d="M 29.75 0 L 29.75 -228.34375 L 59.96875 -228.34375 L 59.96875 0 Z M 29.75 0 "/></g></g></g><g fill="#ffffff" fill-opacity="1"><g transform="translate(941.927712, 967.874897)"><g><path d="M 252.734375 -158.359375 L 166.09375 -328.1875 L 78.640625 -158.359375 L 38.125 -158.359375 L 145.828125 -368.984375 L 185.5625 -368.984375 L 293.265625 -158.359375 Z M 252.734375 -158.359375 "/></g></g></g><g fill="#ffffff" fill-opacity="1"><g transform="translate(1273.310496, 967.874897)"><g/></g></g><g clip-path="url(#1a38435c71)"><g clip-path="url(#c19e9e60f4)"><g transform="matrix(1, 0, 0, 1, 1067, 705)"><g clip-path="url(#b48c3a718c)"><g clip-path="url(#685cf1718f)"><g clip-path="url(#ec84d3cdde)"><path fill="#e81c17" d="M 0.582031 0.574219 L 80.40625 0.574219 L 80.40625 45 L 0.582031 45 Z M 0.582031 0.574219 " fill-opacity="1" fill-rule="nonzero"/></g></g></g></g></g></g></svg>