<svg xmlns="http://www.w3.org/2000/svg" width="799.662" height="676.74" viewBox="0 0 799.662 676.74" xmlns:xlink="http://www.w3.org/1999/xlink" role="img" artist="Katerina Limpitsouni" source="https://undraw.co/"><g transform="translate(-559.888 -145.501)"><path d="M386.105,351.559c18.059,6.932,37.308,17.419,47.062,34.908,9.4,16.859,5.735,36.3-4.5,51.855-12.319,18.716-31.529,31.541-51.5,40.914-22.74,10.673-47.062,17.591-71.416,23.474-12.351,2.984-24.77,5.681-37.189,8.365-2.591.56-3.7-3.42-1.1-3.982,25.045-5.412,50.162-10.841,74.585-18.675,22.6-7.25,45.729-16.536,64.237-31.759,14.973-12.315,29.209-30.3,28.325-50.756-.891-20.618-18.189-35.013-35.144-43.874" transform="translate(392.618 311.111)" fill="#d6d6e3"/><circle cx="66.509" cy="66.509" r="66.509" transform="translate(833.71 521.247)" fill="#D4AF37"/><path d="M422.519,466.684a66.514,66.514,0,0,0,110.824,70.391,66.515,66.515,0,1,1-110.824-70.391Z" transform="translate(428.592 76.647)" opacity="0.2" style="isolation:isolate"/><path d="M279.185,364.626h.183l3.289,188.564h-6.944Z" transform="translate(621.216 223.128)" fill="#cbcbcb"/><circle cx="80.109" cy="80.109" r="80.109" transform="translate(935.987 400.168)" fill="#D4AF37"/><path d="M642.729,354.38a80.116,80.116,0,0,1-133.486,84.785A80.116,80.116,0,1,0,642.729,354.38Z" transform="translate(432.518 72.393)" opacity="0.2" style="isolation:isolate"/><path d="M390.469,261.075h-.22L386.287,488.2h8.363Z" transform="translate(625.407 219.203)" fill="#cbcbcb"/><path d="M438.174,333.956l10.877-8.7c-8.45-.932-11.922,3.676-13.343,7.324-6.6-2.741-13.788.851-13.788.851l21.763,7.9A16.468,16.468,0,0,0,438.174,333.956Z" transform="translate(429.209 71.283)" fill="#d6d6e3"/><path d="M411.758,261.629l10.877-8.7c-8.45-.932-11.922,3.676-13.343,7.324-6.6-2.741-13.788.851-13.788.851l21.763,7.9a16.468,16.468,0,0,0-5.509-7.376Z" transform="translate(428.208 68.542)" fill="#D4AF37"/><path d="M560.216,308.391l10.877-8.7c-8.45-.932-11.922,3.676-13.343,7.324-6.6-2.741-13.788.851-13.788.851l21.763,7.9a16.469,16.469,0,0,0-5.509-7.376Z" transform="translate(433.834 70.314)" fill="#d6d6e3"/><path d="M549.266,624.712s.416-8.721,8.948-7.707" transform="translate(434.034 82.342)" fill="#cbcbcb"/><path d="M605.107,624.712s.416-8.721,8.948-7.707" transform="translate(436.151 82.342)" fill="#cbcbcb"/><path d="M588.848,624.712s.416-8.721,8.948-7.707" transform="translate(435.536 82.342)" fill="#cbcbcb"/><path d="M534.635,624.712s-.416-8.721-8.948-7.707" transform="translate(433.141 82.342)" fill="#cbcbcb"/><path d="M569.476,625.293s-.416-8.721-8.948-7.707" transform="translate(434.461 82.363)" fill="#cbcbcb"/><path d="M441.266,690.712s.416-8.721,8.948-7.707" transform="translate(429.942 84.843)" fill="#cbcbcb"/><path d="M497.107,690.712s.416-8.721,8.948-7.707" transform="translate(432.059 84.843)" fill="#cbcbcb"/><path d="M480.848,690.712s.416-8.721,8.948-7.707" transform="translate(431.442 84.843)" fill="#cbcbcb"/><path d="M426.635,690.712s-.416-8.721-8.948-7.707" transform="translate(429.049 84.843)" fill="#cbcbcb"/><path d="M461.476,691.293s-.416-8.721-8.948-7.707" transform="translate(430.369 84.866)" fill="#cbcbcb"/><path d="M421.519,242.612l-1.639-1.272,41.982-54.056h54.906v2.076h-53.89Z" transform="translate(689.739 222.176)" fill="#3f3d56"/><path d="M1.639,0,43,53.253H96.887v2.076h-54.9l-.311-.4L0,1.272Z" transform="translate(672.589 542.193) rotate(39)" fill="#3f3d56"/><path d="M227.519,98.612,225.88,97.34l41.982-54.056h54.906V45.36h-53.89Z" transform="translate(612.662 191.823)" fill="#3f3d56"/><path d="M478.418,384.982c18.174,9.083,29.238,21.08,29.238,34.238,0,28.346-51.292,51.324-114.564,51.324-27.509,0-52.746-4.347-72.495-11.587,20.976,10.484,51.425,17.086,85.326,17.086,63.271,0,114.564-22.979,114.564-51.324C520.487,408.7,504.093,394.394,478.418,384.982Z" transform="translate(239.291 269.112)" fill="#f1f1f1"/><path d="M511.52,397.381c20.507,10.25,32.992,23.786,32.992,38.634,0,31.985-57.877,57.913-129.272,57.913-31.04,0-59.517-4.905-81.8-13.074,23.669,11.83,58.027,19.279,96.28,19.279,71.394,0,129.272-25.929,129.272-57.913C558.99,424.142,540.491,408,511.52,397.381Z" transform="translate(246.613 276.184)" fill="#f1f1f1"/><path d="M451.63,390.444c12.8,6.4,20.6,14.851,20.6,24.122,0,19.97-36.137,36.159-80.713,36.159a151.606,151.606,0,0,1-51.074-8.163c14.778,7.386,36.23,12.037,60.114,12.037,44.576,0,80.713-16.189,80.713-36.159C481.269,407.152,469.719,397.075,451.63,390.444Z" transform="translate(250.608 272.226)" fill="#f1f1f1"/><path d="M377.748,146.573a11.593,11.593,0,0,0-9.783-8.131c-.051-.007-.1,0-.149,0a1.46,1.46,0,0,0-.2-.046c-10.686-1.381-23.021,3.73-27.475,13.861a11.32,11.32,0,0,0-9.481-4.62,11.546,11.546,0,0,0-10.327,8.324,1.355,1.355,0,0,0,.6,1.482,5.921,5.921,0,0,0,2.441,1.239q2.911.617,5.843,1.13,5.721,1,11.5,1.619a171.023,171.023,0,0,0,23.557.89c2.619-.082,5.145-.168,7.544-1.324a11.226,11.226,0,0,0,4.328-3.777A12.735,12.735,0,0,0,377.748,146.573Z" transform="translate(577.802 196.361)" fill="#f0f0f0"/><g transform="translate(1220.579 319.853)"><g transform="translate(8.986 52.023)"><rect width="87.929" height="7.835" rx="3.918" transform="translate(33.073 6.305)" fill="#3f3d56"/><rect width="87.929" height="7.835" rx="3.918" transform="translate(33.073 35.167)" fill="#3f3d56"/><rect width="87.929" height="7.835" rx="3.918" transform="translate(33.073 61.025)" fill="#3f3d56"/><path d="M717.1,299.081A10.223,10.223,0,1,1,727.323,309.3h0A10.234,10.234,0,0,1,717.1,299.081Z" transform="translate(-717.1 -288.858)" fill="#D4AF37"/><path d="M717.1,334.354a10.223,10.223,0,1,1,10.223,10.223h0A10.234,10.234,0,0,1,717.1,334.354Z" transform="translate(-717.1 -295.268)" fill="#D4AF37"/><path d="M717.1,365.954a10.223,10.223,0,1,1,10.223,10.223h0A10.234,10.234,0,0,1,717.1,365.954Z" transform="translate(-717.1 -301.01)" fill="#D4AF37"/></g><g transform="translate(0)"><path d="M391.079,338.763a7.952,7.952,0,0,0-3.809,6.785v1.17h.936v-1.17a7.031,7.031,0,0,1,5.217-6.785Zm114.893-1.17H395.225a7.964,7.964,0,0,0-7.955,7.955v163.3a7.966,7.966,0,0,0,7.955,7.955H518.288a7.966,7.966,0,0,0,7.955-7.955V355.692ZM525.306,508.85a7.027,7.027,0,0,1-7.019,7.019H395.225a7.027,7.027,0,0,1-7.019-7.019v-163.3a7.031,7.031,0,0,1,5.217-6.785,6.939,6.939,0,0,1,1.8-.234H505.616l19.69,17.58ZM391.079,338.763a7.952,7.952,0,0,0-3.809,6.785v1.17h.936v-1.17a7.031,7.031,0,0,1,5.217-6.785Z" transform="translate(-387.27 -337.593)" fill="#3f3d56"/><path d="M659.859,356.31H647.225a7.964,7.964,0,0,1-7.955-7.954V338.061a.468.468,0,1,1,.936,0v10.294a7.027,7.027,0,0,0,7.019,7.019h12.634a.468.468,0,1,1,0,.936Z" transform="translate(-521.355 -337.593)" fill="#3f3d56"/></g></g><g transform="translate(958.829 145.501)"><g transform="translate(8.986 52.023)"><rect width="87.929" height="7.835" rx="3.918" transform="translate(33.073 6.305)" fill="#3f3d56"/><rect width="87.929" height="7.835" rx="3.918" transform="translate(33.073 35.167)" fill="#3f3d56"/><rect width="87.929" height="7.835" rx="3.918" transform="translate(33.073 61.025)" fill="#3f3d56"/><path d="M717.1,299.081A10.223,10.223,0,1,1,727.323,309.3h0A10.234,10.234,0,0,1,717.1,299.081Z" transform="translate(-717.1 -288.858)" fill="#D4AF37"/><path d="M717.1,334.354a10.223,10.223,0,1,1,10.223,10.223h0A10.234,10.234,0,0,1,717.1,334.354Z" transform="translate(-717.1 -295.268)" fill="#D4AF37"/><path d="M717.1,365.954a10.223,10.223,0,1,1,10.223,10.223h0A10.234,10.234,0,0,1,717.1,365.954Z" transform="translate(-717.1 -301.01)" fill="#D4AF37"/></g><g transform="translate(0)"><path d="M391.079,338.763a7.952,7.952,0,0,0-3.809,6.785v1.17h.936v-1.17a7.031,7.031,0,0,1,5.217-6.785Zm114.893-1.17H395.225a7.964,7.964,0,0,0-7.955,7.955v163.3a7.966,7.966,0,0,0,7.955,7.955H518.288a7.966,7.966,0,0,0,7.955-7.955V355.692ZM525.306,508.85a7.027,7.027,0,0,1-7.019,7.019H395.225a7.027,7.027,0,0,1-7.019-7.019v-163.3a7.031,7.031,0,0,1,5.217-6.785,6.939,6.939,0,0,1,1.8-.234H505.616l19.69,17.58ZM391.079,338.763a7.952,7.952,0,0,0-3.809,6.785v1.17h.936v-1.17a7.031,7.031,0,0,1,5.217-6.785Z" transform="translate(-387.27 -337.593)" fill="#3f3d56"/><path d="M659.859,356.31H647.225a7.964,7.964,0,0,1-7.955-7.954V338.061a.468.468,0,1,1,.936,0v10.294a7.027,7.027,0,0,0,7.019,7.019h12.634a.468.468,0,1,1,0,.936Z" transform="translate(-521.355 -337.593)" fill="#3f3d56"/></g></g><g transform="translate(605.176 355.051)"><g transform="translate(8.986 52.023)"><rect width="87.929" height="7.835" rx="3.918" transform="translate(33.073 6.305)" fill="#3f3d56"/><rect width="87.929" height="7.835" rx="3.918" transform="translate(33.073 35.167)" fill="#3f3d56"/><rect width="87.929" height="7.835" rx="3.918" transform="translate(33.073 61.025)" fill="#3f3d56"/><path d="M717.1,299.081A10.223,10.223,0,1,1,727.323,309.3h0A10.234,10.234,0,0,1,717.1,299.081Z" transform="translate(-717.1 -288.858)" fill="#D4AF37"/><path d="M717.1,334.354a10.223,10.223,0,1,1,10.223,10.223h0A10.234,10.234,0,0,1,717.1,334.354Z" transform="translate(-717.1 -295.268)" fill="#D4AF37"/><path d="M717.1,365.954a10.223,10.223,0,1,1,10.223,10.223h0A10.234,10.234,0,0,1,717.1,365.954Z" transform="translate(-717.1 -301.01)" fill="#D4AF37"/></g><g transform="translate(0)"><path d="M391.079,338.763a7.952,7.952,0,0,0-3.809,6.785v1.17h.936v-1.17a7.031,7.031,0,0,1,5.217-6.785Zm114.893-1.17H395.225a7.964,7.964,0,0,0-7.955,7.955v163.3a7.966,7.966,0,0,0,7.955,7.955H518.288a7.966,7.966,0,0,0,7.955-7.955V355.692ZM525.306,508.85a7.027,7.027,0,0,1-7.019,7.019H395.225a7.027,7.027,0,0,1-7.019-7.019v-163.3a7.031,7.031,0,0,1,5.217-6.785,6.939,6.939,0,0,1,1.8-.234H505.616l19.69,17.58ZM391.079,338.763a7.952,7.952,0,0,0-3.809,6.785v1.17h.936v-1.17a7.031,7.031,0,0,1,5.217-6.785Z" transform="translate(-387.27 -337.593)" fill="#3f3d56"/><path d="M659.859,356.31H647.225a7.964,7.964,0,0,1-7.955-7.954V338.061a.468.468,0,1,1,.936,0v10.294a7.027,7.027,0,0,0,7.019,7.019h12.634a.468.468,0,1,1,0,.936Z" transform="translate(-521.355 -337.593)" fill="#3f3d56"/></g></g></g></svg>