<svg xmlns="http://www.w3.org/2000/svg" xmlns:xlink="http://www.w3.org/1999/xlink" width="2000" zoomAndPan="magnify" viewBox="0 0 1500 1499.999933" height="2000" preserveAspectRatio="xMidYMid meet" version="1.0"><defs><g/><clipPath id="ef99625b1a"><rect x="0" width="271" y="0" height="417"/></clipPath><clipPath id="38defbdd57"><path d="M 744.253906 499.152344 L 769.382812 499.152344 L 769.382812 521.105469 L 744.253906 521.105469 Z M 744.253906 499.152344 " clip-rule="nonzero"/></clipPath><clipPath id="aa123158f6"><path d="M 756.800781 499.152344 L 769.34375 521.105469 L 744.253906 521.105469 Z M 756.800781 499.152344 " clip-rule="nonzero"/></clipPath><clipPath id="9e083461d4"><path d="M 0.253906 0.152344 L 25.382812 0.152344 L 25.382812 22.105469 L 0.253906 22.105469 Z M 0.253906 0.152344 " clip-rule="nonzero"/></clipPath><clipPath id="082d5cab4c"><path d="M 12.800781 0.152344 L 25.34375 22.105469 L 0.253906 22.105469 Z M 12.800781 0.152344 " clip-rule="nonzero"/></clipPath><clipPath id="e4feddfc6c"><rect x="0" width="26" y="0" height="23"/></clipPath></defs><g transform="matrix(1, 0, 0, 1, 659, 301)"><g clip-path="url(#ef99625b1a)"><g fill="#e81c17" fill-opacity="1"><g transform="translate(1.109926, 331.876606)"><g><path d="M 143.90625 -89.234375 L 97.796875 -172.890625 L 51.375 -89.234375 L 18.46875 -89.234375 L 83.671875 -207.890625 L 111.609375 -207.890625 L 176.953125 -89.234375 Z M 143.90625 -89.234375 "/></g></g></g><g fill="#e81c17" fill-opacity="1"><g transform="translate(196.393043, 331.876606)"><g/></g></g></g></g><g clip-path="url(#38defbdd57)"><g clip-path="url(#aa123158f6)"><g transform="matrix(1, 0, 0, 1, 744, 499)"><g clip-path="url(#e4feddfc6c)"><g clip-path="url(#9e083461d4)"><g clip-path="url(#082d5cab4c)"><path fill="#e81c17" d="M 0.253906 0.152344 L 25.382812 0.152344 L 25.382812 22.105469 L 0.253906 22.105469 Z M 0.253906 0.152344 " fill-opacity="1" fill-rule="nonzero"/></g></g></g></g></g></g></svg>