<svg xmlns="http://www.w3.org/2000/svg" height="24px" viewBox="0 -960 960 960" width="24px" fill="#e3e3e3"><path d="M160-120v-200q0-33 23.5-56.5T240-400h480q33 0 56.5 23.5T800-320v200H160Zm200-320q-83 0-141.5-58.5T160-640q0-83 58.5-141.5T360-840h240q83 0 141.5 58.5T800-640q0 83-58.5 141.5T600-440H360ZM240-200h480v-120H240v120Zm120-320h240q50 0 85-35t35-85q0-50-35-85t-85-35H360q-50 0-85 35t-35 85q0 50 35 85t85 35Zm28.5-91.5Q400-623 400-640t-11.5-28.5Q377-680 360-680t-28.5 11.5Q320-657 320-640t11.5 28.5Q343-600 360-600t28.5-11.5Zm240 0Q640-623 640-640t-11.5-28.5Q617-680 600-680t-28.5 11.5Q560-657 560-640t11.5 28.5Q583-600 600-600t28.5-11.5ZM480-200Zm0-440Z"/></svg>