<svg xmlns="http://www.w3.org/2000/svg" xmlns:xlink="http://www.w3.org/1999/xlink" width="2000" zoomAndPan="magnify" viewBox="0 0 1500 1499.999933" height="2000" preserveAspectRatio="xMidYMid meet" version="1.0"><defs><g/><clipPath id="faadb2e252"><path d="M 701.25 705.574219 L 781.074219 705.574219 L 781.074219 750 L 701.25 750 Z M 701.25 705.574219 " clip-rule="nonzero"/></clipPath><clipPath id="1e977d954d"><path d="M 716.054688 705.574219 L 766.253906 705.574219 L 781.0625 750 L 701.25 750 Z M 716.054688 705.574219 " clip-rule="nonzero"/></clipPath><clipPath id="c481657bb1"><path d="M 0.25 0.574219 L 80.074219 0.574219 L 80.074219 45 L 0.25 45 Z M 0.25 0.574219 " clip-rule="nonzero"/></clipPath><clipPath id="82c9bfc30b"><path d="M 15.054688 0.574219 L 65.253906 0.574219 L 80.0625 45 L 0.25 45 Z M 15.054688 0.574219 " clip-rule="nonzero"/></clipPath><clipPath id="ccb29d853a"><rect x="0" width="81" y="0" height="45"/></clipPath><clipPath id="c52b05dad9"><path d="M 1067.582031 705.574219 L 1147.40625 705.574219 L 1147.40625 750 L 1067.582031 750 Z M 1067.582031 705.574219 " clip-rule="nonzero"/></clipPath><clipPath id="3d6660fe27"><path d="M 1082.390625 705.574219 L 1132.585938 705.574219 L 1147.394531 750 L 1067.582031 750 Z M 1082.390625 705.574219 " clip-rule="nonzero"/></clipPath><clipPath id="b8aaa2b021"><path d="M 0.582031 0.574219 L 80.40625 0.574219 L 80.40625 45 L 0.582031 45 Z M 0.582031 0.574219 " clip-rule="nonzero"/></clipPath><clipPath id="66ab28bbde"><path d="M 15.390625 0.574219 L 65.585938 0.574219 L 80.394531 45 L 0.582031 45 Z M 15.390625 0.574219 " clip-rule="nonzero"/></clipPath><clipPath id="5429b3d190"><rect x="0" width="81" y="0" height="45"/></clipPath><clipPath id="2ec4d1c3f4"><rect x="0" width="25" y="0" height="126"/></clipPath><clipPath id="3dd8943035"><rect x="0" width="25" y="0" height="125"/></clipPath><clipPath id="21fa3ff057"><rect x="0" width="25" y="0" height="125"/></clipPath></defs><g fill="#ffffff" fill-opacity="1"><g transform="translate(215.220747, 807.079902)"><g><path d="M 28.375 0 L 28.375 -215.75 L 160.25 -215.75 L 160.25 -189.71875 L 57.21875 -189.71875 L 57.21875 -126.734375 L 145.296875 -126.734375 L 145.296875 -100.546875 L 57.21875 -100.546875 L 57.21875 -26.1875 L 160.25 -26.1875 L 160.25 0 Z M 28.375 0 "/></g></g><g transform="translate(394.964592, 807.079902)"><g><path d="M 193.765625 -37.71875 C 186.910156 -26.707031 179.921875 -18.367188 172.796875 -12.703125 C 165.679688 -7.035156 157.394531 -2.75 147.9375 0.15625 C 138.476562 3.0625 127.359375 4.515625 114.578125 4.515625 C 82.253906 4.515625 58.425781 -4.804688 43.09375 -23.453125 C 27.769531 -42.109375 20.109375 -70.25 20.109375 -107.875 C 20.109375 -145.394531 27.71875 -173.507812 42.9375 -192.21875 C 58.164062 -210.925781 81.628906 -220.28125 113.328125 -220.28125 C 125.910156 -220.28125 137.132812 -218.71875 147 -215.59375 C 156.875 -212.476562 165.210938 -208.191406 172.015625 -202.734375 C 178.828125 -197.273438 185.039062 -189.613281 190.65625 -179.75 L 166.953125 -164.15625 C 162.378906 -171.84375 157.753906 -177.6875 153.078125 -181.6875 C 148.398438 -185.6875 142.785156 -188.851562 136.234375 -191.1875 C 129.691406 -193.53125 122.054688 -194.703125 113.328125 -194.703125 C 91.710938 -194.703125 75.835938 -187.503906 65.703125 -173.109375 C 55.578125 -158.722656 50.515625 -136.976562 50.515625 -107.875 C 50.515625 -79.1875 55.5 -57.539062 65.46875 -42.9375 C 75.445312 -28.34375 91.503906 -21.046875 113.640625 -21.046875 C 125.910156 -21.046875 136.566406 -23.460938 145.609375 -28.296875 C 154.648438 -33.128906 162.753906 -41.46875 169.921875 -53.3125 Z M 193.765625 -37.71875 "/></g></g></g><g fill="#ffffff" fill-opacity="1"><g transform="translate(575.595224, 967.874897)"><g><path d="M 252.734375 -158.359375 L 166.09375 -328.1875 L 78.640625 -158.359375 L 38.125 -158.359375 L 145.828125 -368.984375 L 185.5625 -368.984375 L 293.265625 -158.359375 Z M 252.734375 -158.359375 "/></g></g></g><g fill="#ffffff" fill-opacity="1"><g transform="translate(906.978008, 967.874897)"><g/></g></g><g clip-path="url(#faadb2e252)"><g clip-path="url(#1e977d954d)"><g transform="matrix(1, 0, 0, 1, 701, 705)"><g clip-path="url(#ccb29d853a)"><g clip-path="url(#c481657bb1)"><g clip-path="url(#82c9bfc30b)"><path fill="#e81c17" d="M 0.25 0.574219 L 80.074219 0.574219 L 80.074219 45 L 0.25 45 Z M 0.25 0.574219 " fill-opacity="1" fill-rule="nonzero"/></g></g></g></g></g></g><g fill="#ffffff" fill-opacity="1"><g transform="translate(875.825454, 813.607734)"><g><path d="M 29.75 0 L 29.75 -228.34375 L 59.96875 -228.34375 L 59.96875 0 Z M 29.75 0 "/></g></g></g><g fill="#ffffff" fill-opacity="1"><g transform="translate(941.927712, 967.874897)"><g><path d="M 252.734375 -158.359375 L 166.09375 -328.1875 L 78.640625 -158.359375 L 38.125 -158.359375 L 145.828125 -368.984375 L 185.5625 -368.984375 L 293.265625 -158.359375 Z M 252.734375 -158.359375 "/></g></g></g><g fill="#ffffff" fill-opacity="1"><g transform="translate(1273.310496, 967.874897)"><g/></g></g><g clip-path="url(#c52b05dad9)"><g clip-path="url(#3d6660fe27)"><g transform="matrix(1, 0, 0, 1, 1067, 705)"><g clip-path="url(#5429b3d190)"><g clip-path="url(#b8aaa2b021)"><g clip-path="url(#66ab28bbde)"><path fill="#e81c17" d="M 0.582031 0.574219 L 80.40625 0.574219 L 80.40625 45 L 0.582031 45 Z M 0.582031 0.574219 " fill-opacity="1" fill-rule="nonzero"/></g></g></g></g></g></g><g fill="#ffffff" fill-opacity="1"><g transform="translate(235.65993, 889.127999)"><g><path d="M 3.5625 0 L 3.5625 -27.03125 L 20.078125 -27.03125 L 20.078125 -23.765625 L 7.171875 -23.765625 L 7.171875 -15.875 L 18.203125 -15.875 L 18.203125 -12.59375 L 7.171875 -12.59375 L 7.171875 -3.28125 L 20.078125 -3.28125 L 20.078125 0 Z M 3.5625 0 "/></g></g></g><g fill="#ffffff" fill-opacity="1"><g transform="translate(258.177266, 889.127999)"><g><path d="M 21.71875 -7.40625 C 21.71875 -4.875 20.882812 -2.910156 19.21875 -1.515625 C 17.5625 -0.128906 15.140625 0.5625 11.953125 0.5625 C 9.515625 0.5625 7.484375 0.132812 5.859375 -0.71875 C 4.234375 -1.582031 2.90625 -2.921875 1.875 -4.734375 L 4.8125 -6.6875 C 6.332031 -3.988281 8.6875 -2.640625 11.875 -2.640625 C 13.789062 -2.640625 15.296875 -3.039062 16.390625 -3.84375 C 17.492188 -4.644531 18.046875 -5.738281 18.046875 -7.125 C 18.046875 -7.925781 17.867188 -8.597656 17.515625 -9.140625 C 17.171875 -9.691406 16.710938 -10.148438 16.140625 -10.515625 C 15.566406 -10.890625 14.90625 -11.191406 14.15625 -11.421875 C 13.414062 -11.648438 12.644531 -11.867188 11.84375 -12.078125 C 10.507812 -12.398438 9.269531 -12.734375 8.125 -13.078125 C 6.976562 -13.421875 5.984375 -13.863281 5.140625 -14.40625 C 4.304688 -14.957031 3.644531 -15.660156 3.15625 -16.515625 C 2.675781 -17.367188 2.4375 -18.46875 2.4375 -19.8125 C 2.4375 -22.207031 3.207031 -24.101562 4.75 -25.5 C 6.300781 -26.894531 8.613281 -27.59375 11.6875 -27.59375 C 14.132812 -27.59375 16.085938 -27.140625 17.546875 -26.234375 C 19.003906 -25.335938 20.15625 -24.175781 21 -22.75 L 18.125 -20.71875 C 17.425781 -21.894531 16.570312 -22.800781 15.5625 -23.4375 C 14.550781 -24.070312 13.257812 -24.390625 11.6875 -24.390625 C 9.925781 -24.390625 8.554688 -24.003906 7.578125 -23.234375 C 6.597656 -22.460938 6.109375 -21.425781 6.109375 -20.125 C 6.109375 -19.425781 6.253906 -18.84375 6.546875 -18.375 C 6.847656 -17.90625 7.269531 -17.507812 7.8125 -17.1875 C 8.363281 -16.875 9.046875 -16.601562 9.859375 -16.375 C 10.671875 -16.144531 11.597656 -15.898438 12.640625 -15.640625 C 13.859375 -15.316406 15.019531 -14.972656 16.125 -14.609375 C 17.238281 -14.253906 18.207031 -13.785156 19.03125 -13.203125 C 19.863281 -12.617188 20.519531 -11.863281 21 -10.9375 C 21.476562 -10.007812 21.71875 -8.832031 21.71875 -7.40625 Z M 21.71875 -7.40625 "/></g></g></g><g fill="#ffffff" fill-opacity="1"><g transform="translate(281.339041, 889.127999)"><g><path d="M 13.359375 -23.765625 L 13.359375 0 L 9.765625 0 L 9.765625 -23.765625 L 0.796875 -23.765625 L 0.796875 -27.03125 L 22.328125 -27.03125 L 22.328125 -23.765625 Z M 13.359375 -23.765625 "/></g></g></g><g fill="#ffffff" fill-opacity="1"><g transform="translate(304.461781, 889.127999)"><g><path d="M 18.765625 0 L 11.875 -11.03125 L 7.171875 -11.03125 L 7.171875 0 L 3.5625 0 L 3.5625 -27.03125 L 11.953125 -27.03125 C 15.316406 -27.03125 17.726562 -26.410156 19.1875 -25.171875 C 20.644531 -23.941406 21.375 -22.03125 21.375 -19.4375 C 21.375 -17.21875 20.925781 -15.460938 20.03125 -14.171875 C 19.132812 -12.890625 17.6875 -12.035156 15.6875 -11.609375 L 23.015625 0 Z M 17.640625 -19.15625 C 17.640625 -20.945312 17.1875 -22.175781 16.28125 -22.84375 C 15.375 -23.507812 13.921875 -23.84375 11.921875 -23.84375 L 7.171875 -23.84375 L 7.171875 -14.234375 L 11.6875 -14.234375 C 13.195312 -14.234375 14.382812 -14.394531 15.25 -14.71875 C 16.113281 -15.039062 16.726562 -15.546875 17.09375 -16.234375 C 17.457031 -16.929688 17.640625 -17.90625 17.640625 -19.15625 Z M 17.640625 -19.15625 "/></g></g></g><g fill="#ffffff" fill-opacity="1"><g transform="translate(328.619581, 889.127999)"><g><path d="M 1 0 L 10.234375 -27.03125 L 14.921875 -27.03125 L 24.15625 0 L 20.359375 0 L 18.015625 -7.03125 L 7 -7.03125 L 4.6875 0 Z M 8.09375 -10.3125 L 16.875 -10.3125 L 12.484375 -23.484375 Z M 8.09375 -10.3125 "/></g></g></g><g fill="#ffffff" fill-opacity="1"><g transform="translate(350.570445, 889.127999)"><g><path d="M 13.359375 -23.765625 L 13.359375 0 L 9.765625 0 L 9.765625 -23.765625 L 0.796875 -23.765625 L 0.796875 -27.03125 L 22.328125 -27.03125 L 22.328125 -23.765625 Z M 13.359375 -23.765625 "/></g></g></g><g fill="#ffffff" fill-opacity="1"><g transform="translate(373.693185, 889.127999)"><g><path d="M 3.5625 0 L 3.5625 -27.03125 L 20.078125 -27.03125 L 20.078125 -23.765625 L 7.171875 -23.765625 L 7.171875 -15.875 L 18.203125 -15.875 L 18.203125 -12.59375 L 7.171875 -12.59375 L 7.171875 -3.28125 L 20.078125 -3.28125 L 20.078125 0 Z M 3.5625 0 "/></g></g></g><g fill="#ffffff" fill-opacity="1"><g transform="translate(396.210521, 889.127999)"><g><path d="M 21 -20.53125 C 20.363281 -21.695312 19.515625 -22.628906 18.453125 -23.328125 C 17.398438 -24.035156 15.984375 -24.390625 14.203125 -24.390625 C 11.484375 -24.390625 9.488281 -23.488281 8.21875 -21.6875 C 6.957031 -19.894531 6.328125 -17.144531 6.328125 -13.4375 C 6.328125 -9.644531 7.007812 -6.894531 8.375 -5.1875 C 9.75 -3.488281 11.78125 -2.640625 14.46875 -2.640625 C 15.507812 -2.640625 16.476562 -2.757812 17.375 -3 C 18.269531 -3.238281 19.238281 -3.585938 20.28125 -4.046875 L 20.28125 -10.453125 L 13.71875 -10.453125 L 13.71875 -13.71875 L 23.890625 -13.71875 L 23.890625 -2.078125 C 22.421875 -1.253906 20.957031 -0.609375 19.5 -0.140625 C 18.050781 0.328125 16.375 0.5625 14.46875 0.5625 C 10.40625 0.5625 7.394531 -0.597656 5.4375 -2.921875 C 3.488281 -5.253906 2.515625 -8.773438 2.515625 -13.484375 C 2.515625 -18.242188 3.492188 -21.785156 5.453125 -24.109375 C 7.421875 -26.429688 10.347656 -27.59375 14.234375 -27.59375 C 16.453125 -27.59375 18.363281 -27.203125 19.96875 -26.421875 C 21.582031 -25.640625 22.898438 -24.335938 23.921875 -22.515625 Z M 21 -20.53125 "/></g></g></g><g fill="#ffffff" fill-opacity="1"><g transform="translate(423.375839, 889.127999)"><g><path d="M 13.046875 0 L 2 0 L 2 -3.125 L 5.71875 -3.125 L 5.71875 -23.96875 L 2 -23.96875 L 2 -27.03125 L 13.046875 -27.03125 L 13.046875 -23.96875 L 9.3125 -23.96875 L 9.3125 -3.125 L 13.046875 -3.125 Z M 13.046875 0 "/></g></g></g><g fill="#ffffff" fill-opacity="1"><g transform="translate(438.413421, 889.127999)"><g><path d="M 1 0 L 10.234375 -27.03125 L 14.921875 -27.03125 L 24.15625 0 L 20.359375 0 L 18.015625 -7.03125 L 7 -7.03125 L 4.6875 0 Z M 8.09375 -10.3125 L 16.875 -10.3125 L 12.484375 -23.484375 Z M 8.09375 -10.3125 "/></g></g></g><g fill="#ffffff" fill-opacity="1"><g transform="translate(463.577883, 889.127999)"><g/></g></g><g fill="#ffffff" fill-opacity="1"><g transform="translate(474.377614, 889.127999)"><g/></g></g><g fill="#ffffff" fill-opacity="1"><g transform="translate(506.937302, 889.557671)"><g><path d="M 24.28125 -4.734375 C 23.414062 -3.347656 22.535156 -2.300781 21.640625 -1.59375 C 20.753906 -0.882812 19.71875 -0.347656 18.53125 0.015625 C 17.351562 0.378906 15.960938 0.5625 14.359375 0.5625 C 10.304688 0.5625 7.316406 -0.601562 5.390625 -2.9375 C 3.472656 -5.28125 2.515625 -8.804688 2.515625 -13.515625 C 2.515625 -18.210938 3.46875 -21.734375 5.375 -24.078125 C 7.289062 -26.421875 10.234375 -27.59375 14.203125 -27.59375 C 15.773438 -27.59375 17.179688 -27.394531 18.421875 -27 C 19.660156 -26.613281 20.703125 -26.078125 21.546875 -25.390625 C 22.398438 -24.710938 23.179688 -23.753906 23.890625 -22.515625 L 20.921875 -20.5625 C 20.347656 -21.53125 19.765625 -22.265625 19.171875 -22.765625 C 18.585938 -23.265625 17.882812 -23.660156 17.0625 -23.953125 C 16.25 -24.242188 15.296875 -24.390625 14.203125 -24.390625 C 11.492188 -24.390625 9.503906 -23.488281 8.234375 -21.6875 C 6.960938 -19.882812 6.328125 -17.160156 6.328125 -13.515625 C 6.328125 -9.921875 6.953125 -7.207031 8.203125 -5.375 C 9.453125 -3.550781 11.460938 -2.640625 14.234375 -2.640625 C 15.773438 -2.640625 17.109375 -2.941406 18.234375 -3.546875 C 19.367188 -4.148438 20.390625 -5.195312 21.296875 -6.6875 Z M 24.28125 -4.734375 "/></g></g></g><g fill="#ffffff" fill-opacity="1"><g transform="translate(532.735567, 889.557671)"><g><path d="M 24.3125 -13.515625 C 24.3125 -8.660156 23.394531 -5.097656 21.5625 -2.828125 C 19.738281 -0.566406 16.992188 0.5625 13.328125 0.5625 C 9.597656 0.5625 6.832031 -0.585938 5.03125 -2.890625 C 3.226562 -5.191406 2.328125 -8.734375 2.328125 -13.515625 C 2.328125 -18.253906 3.21875 -21.785156 5 -24.109375 C 6.78125 -26.429688 9.554688 -27.59375 13.328125 -27.59375 C 17.035156 -27.59375 19.789062 -26.453125 21.59375 -24.171875 C 23.40625 -21.898438 24.3125 -18.347656 24.3125 -13.515625 Z M 20.53125 -13.515625 C 20.53125 -17.253906 19.96875 -20 18.84375 -21.75 C 17.71875 -23.507812 15.878906 -24.390625 13.328125 -24.390625 C 10.773438 -24.390625 8.929688 -23.507812 7.796875 -21.75 C 6.671875 -20 6.109375 -17.253906 6.109375 -13.515625 C 6.109375 -9.753906 6.675781 -7 7.8125 -5.25 C 8.957031 -3.507812 10.796875 -2.640625 13.328125 -2.640625 C 15.835938 -2.640625 17.664062 -3.503906 18.8125 -5.234375 C 19.957031 -6.960938 20.53125 -9.722656 20.53125 -13.515625 Z M 20.53125 -13.515625 "/></g></g></g><g fill="#ffffff" fill-opacity="1"><g transform="translate(559.373588, 889.557671)"><g><path d="M 19.234375 0 L 7.03125 -23.203125 L 7.03125 0 L 3.5625 0 L 3.5625 -27.03125 L 8.84375 -27.03125 L 20.046875 -5.796875 L 20.046875 -27.03125 L 23.515625 -27.03125 L 23.515625 0 Z M 19.234375 0 "/></g></g></g><g fill="#ffffff" fill-opacity="1"><g transform="translate(586.441255, 889.557671)"><g><path d="M 13.359375 -23.765625 L 13.359375 0 L 9.765625 0 L 9.765625 -23.765625 L 0.796875 -23.765625 L 0.796875 -27.03125 L 22.328125 -27.03125 L 22.328125 -23.765625 Z M 13.359375 -23.765625 "/></g></g></g><g fill="#ffffff" fill-opacity="1"><g transform="translate(609.563994, 889.557671)"><g><path d="M 3.5625 0 L 3.5625 -27.03125 L 20.078125 -27.03125 L 20.078125 -23.765625 L 7.171875 -23.765625 L 7.171875 -15.875 L 18.203125 -15.875 L 18.203125 -12.59375 L 7.171875 -12.59375 L 7.171875 -3.28125 L 20.078125 -3.28125 L 20.078125 0 Z M 3.5625 0 "/></g></g></g><g fill="#ffffff" fill-opacity="1"><g transform="translate(632.08133, 889.557671)"><g><path d="M 19.234375 0 L 7.03125 -23.203125 L 7.03125 0 L 3.5625 0 L 3.5625 -27.03125 L 8.84375 -27.03125 L 20.046875 -5.796875 L 20.046875 -27.03125 L 23.515625 -27.03125 L 23.515625 0 Z M 19.234375 0 "/></g></g></g><g fill="#ffffff" fill-opacity="1"><g transform="translate(659.148997, 889.557671)"><g><path d="M 13.046875 0 L 2 0 L 2 -3.125 L 5.71875 -3.125 L 5.71875 -23.96875 L 2 -23.96875 L 2 -27.03125 L 13.046875 -27.03125 L 13.046875 -23.96875 L 9.3125 -23.96875 L 9.3125 -3.125 L 13.046875 -3.125 Z M 13.046875 0 "/></g></g></g><g fill="#ffffff" fill-opacity="1"><g transform="translate(674.186589, 889.557671)"><g><path d="M 22.9375 -13.515625 C 22.9375 -10.210938 22.507812 -7.582031 21.65625 -5.625 C 20.800781 -3.675781 19.484375 -2.25 17.703125 -1.34375 C 15.929688 -0.445312 13.429688 0 10.203125 0 L 3.328125 0 L 3.328125 -27.03125 L 10.125 -27.03125 C 13.269531 -27.03125 15.753906 -26.578125 17.578125 -25.671875 C 19.398438 -24.765625 20.75 -23.328125 21.625 -21.359375 C 22.5 -19.398438 22.9375 -16.785156 22.9375 -13.515625 Z M 19.125 -13.5625 C 19.125 -16.132812 18.835938 -18.148438 18.265625 -19.609375 C 17.691406 -21.066406 16.742188 -22.125 15.421875 -22.78125 C 14.109375 -23.4375 12.273438 -23.765625 9.921875 -23.765625 L 6.921875 -23.765625 L 6.921875 -3.28125 L 9.921875 -3.28125 C 12.296875 -3.28125 14.128906 -3.609375 15.421875 -4.265625 C 16.710938 -4.921875 17.648438 -5.972656 18.234375 -7.421875 C 18.828125 -8.878906 19.125 -10.925781 19.125 -13.5625 Z M 19.125 -13.5625 "/></g></g></g><g fill="#ffffff" fill-opacity="1"><g transform="translate(699.418486, 889.557671)"><g><path d="M 24.3125 -13.515625 C 24.3125 -8.660156 23.394531 -5.097656 21.5625 -2.828125 C 19.738281 -0.566406 16.992188 0.5625 13.328125 0.5625 C 9.597656 0.5625 6.832031 -0.585938 5.03125 -2.890625 C 3.226562 -5.191406 2.328125 -8.734375 2.328125 -13.515625 C 2.328125 -18.253906 3.21875 -21.785156 5 -24.109375 C 6.78125 -26.429688 9.554688 -27.59375 13.328125 -27.59375 C 17.035156 -27.59375 19.789062 -26.453125 21.59375 -24.171875 C 23.40625 -21.898438 24.3125 -18.347656 24.3125 -13.515625 Z M 20.53125 -13.515625 C 20.53125 -17.253906 19.96875 -20 18.84375 -21.75 C 17.71875 -23.507812 15.878906 -24.390625 13.328125 -24.390625 C 10.773438 -24.390625 8.929688 -23.507812 7.796875 -21.75 C 6.671875 -20 6.109375 -17.253906 6.109375 -13.515625 C 6.109375 -9.753906 6.675781 -7 7.8125 -5.25 C 8.957031 -3.507812 10.796875 -2.640625 13.328125 -2.640625 C 15.835938 -2.640625 17.664062 -3.503906 18.8125 -5.234375 C 19.957031 -6.960938 20.53125 -9.722656 20.53125 -13.515625 Z M 20.53125 -13.515625 "/></g></g></g><g fill="#ffffff" fill-opacity="1"><g transform="translate(792.311797, 889.557671)"><g><path d="M 1 0 L 10.234375 -27.03125 L 14.921875 -27.03125 L 24.15625 0 L 20.359375 0 L 18.015625 -7.03125 L 7 -7.03125 L 4.6875 0 Z M 8.09375 -10.3125 L 16.875 -10.3125 L 12.484375 -23.484375 Z M 8.09375 -10.3125 "/></g></g></g><g fill="#ffffff" fill-opacity="1"><g transform="translate(816.664857, 889.557671)"><g><path d="M 23.890625 -11.296875 C 23.890625 -8.335938 23.554688 -6.003906 22.890625 -4.296875 C 22.222656 -2.585938 21.175781 -1.34375 19.75 -0.5625 C 18.332031 0.21875 16.335938 0.609375 13.765625 0.609375 C 11.210938 0.609375 9.203125 0.210938 7.734375 -0.578125 C 6.265625 -1.378906 5.203125 -2.640625 4.546875 -4.359375 C 3.890625 -6.078125 3.5625 -8.390625 3.5625 -11.296875 L 3.5625 -27.03125 L 7.171875 -27.03125 L 7.171875 -11.6875 C 7.171875 -9.3125 7.382812 -7.484375 7.8125 -6.203125 C 8.238281 -4.921875 8.914062 -4 9.84375 -3.4375 C 10.78125 -2.875 12.070312 -2.59375 13.71875 -2.59375 C 15.363281 -2.59375 16.65625 -2.867188 17.59375 -3.421875 C 18.53125 -3.984375 19.210938 -4.867188 19.640625 -6.078125 C 20.066406 -7.285156 20.28125 -9.128906 20.28125 -11.609375 L 20.28125 -27.03125 L 23.890625 -27.03125 Z M 23.890625 -11.296875 "/></g></g></g><g fill="#ffffff" fill-opacity="1"><g transform="translate(844.103586, 889.557671)"><g><path d="M 13.359375 -23.765625 L 13.359375 0 L 9.765625 0 L 9.765625 -23.765625 L 0.796875 -23.765625 L 0.796875 -27.03125 L 22.328125 -27.03125 L 22.328125 -23.765625 Z M 13.359375 -23.765625 "/></g></g></g><g fill="#ffffff" fill-opacity="1"><g transform="translate(866.034996, 889.557671)"><g><path d="M 24.3125 -13.515625 C 24.3125 -8.660156 23.394531 -5.097656 21.5625 -2.828125 C 19.738281 -0.566406 16.992188 0.5625 13.328125 0.5625 C 9.597656 0.5625 6.832031 -0.585938 5.03125 -2.890625 C 3.226562 -5.191406 2.328125 -8.734375 2.328125 -13.515625 C 2.328125 -18.253906 3.21875 -21.785156 5 -24.109375 C 6.78125 -26.429688 9.554688 -27.59375 13.328125 -27.59375 C 17.035156 -27.59375 19.789062 -26.453125 21.59375 -24.171875 C 23.40625 -21.898438 24.3125 -18.347656 24.3125 -13.515625 Z M 20.53125 -13.515625 C 20.53125 -17.253906 19.96875 -20 18.84375 -21.75 C 17.71875 -23.507812 15.878906 -24.390625 13.328125 -24.390625 C 10.773438 -24.390625 8.929688 -23.507812 7.796875 -21.75 C 6.671875 -20 6.109375 -17.253906 6.109375 -13.515625 C 6.109375 -9.753906 6.675781 -7 7.8125 -5.25 C 8.957031 -3.507812 10.796875 -2.640625 13.328125 -2.640625 C 15.835938 -2.640625 17.664062 -3.503906 18.8125 -5.234375 C 19.957031 -6.960938 20.53125 -9.722656 20.53125 -13.515625 Z M 20.53125 -13.515625 "/></g></g></g><g fill="#ffffff" fill-opacity="1"><g transform="translate(892.673017, 889.557671)"><g><path d="M 24.125 0 L 24.125 -22.40625 L 16.640625 -7.359375 L 14.390625 -7.359375 L 7 -22.40625 L 7 0 L 3.5625 0 L 3.5625 -27.03125 L 8.4375 -27.03125 L 15.609375 -12.328125 L 22.828125 -27.03125 L 27.5625 -27.03125 L 27.5625 0 Z M 24.125 0 "/></g></g></g><g fill="#ffffff" fill-opacity="1"><g transform="translate(923.783263, 889.557671)"><g><path d="M 1 0 L 10.234375 -27.03125 L 14.921875 -27.03125 L 24.15625 0 L 20.359375 0 L 18.015625 -7.03125 L 7 -7.03125 L 4.6875 0 Z M 8.09375 -10.3125 L 16.875 -10.3125 L 12.484375 -23.484375 Z M 8.09375 -10.3125 "/></g></g></g><g fill="#ffffff" fill-opacity="1"><g transform="translate(945.734128, 889.557671)"><g><path d="M 13.359375 -23.765625 L 13.359375 0 L 9.765625 0 L 9.765625 -23.765625 L 0.796875 -23.765625 L 0.796875 -27.03125 L 22.328125 -27.03125 L 22.328125 -23.765625 Z M 13.359375 -23.765625 "/></g></g></g><g fill="#ffffff" fill-opacity="1"><g transform="translate(968.856867, 889.557671)"><g><path d="M 13.046875 0 L 2 0 L 2 -3.125 L 5.71875 -3.125 L 5.71875 -23.96875 L 2 -23.96875 L 2 -27.03125 L 13.046875 -27.03125 L 13.046875 -23.96875 L 9.3125 -23.96875 L 9.3125 -3.125 L 13.046875 -3.125 Z M 13.046875 0 "/></g></g></g><g fill="#ffffff" fill-opacity="1"><g transform="translate(983.89446, 889.557671)"><g><path d="M 1.796875 0 L 1.796875 -3.4375 L 16.03125 -23.765625 L 2.40625 -23.765625 L 2.40625 -27.03125 L 20.3125 -27.03125 L 20.3125 -23.8125 L 5.921875 -3.28125 L 20.640625 -3.28125 L 20.640625 0 Z M 1.796875 0 "/></g></g></g><g fill="#ffffff" fill-opacity="1"><g transform="translate(1006.607089, 889.557671)"><g><path d="M 1 0 L 10.234375 -27.03125 L 14.921875 -27.03125 L 24.15625 0 L 20.359375 0 L 18.015625 -7.03125 L 7 -7.03125 L 4.6875 0 Z M 8.09375 -10.3125 L 16.875 -10.3125 L 12.484375 -23.484375 Z M 8.09375 -10.3125 "/></g></g></g><g fill="#ffffff" fill-opacity="1"><g transform="translate(1030.960137, 889.557671)"><g><path d="M 24.28125 -4.734375 C 23.414062 -3.347656 22.535156 -2.300781 21.640625 -1.59375 C 20.753906 -0.882812 19.71875 -0.347656 18.53125 0.015625 C 17.351562 0.378906 15.960938 0.5625 14.359375 0.5625 C 10.304688 0.5625 7.316406 -0.601562 5.390625 -2.9375 C 3.472656 -5.28125 2.515625 -8.804688 2.515625 -13.515625 C 2.515625 -18.210938 3.46875 -21.734375 5.375 -24.078125 C 7.289062 -26.421875 10.234375 -27.59375 14.203125 -27.59375 C 15.773438 -27.59375 17.179688 -27.394531 18.421875 -27 C 19.660156 -26.613281 20.703125 -26.078125 21.546875 -25.390625 C 22.398438 -24.710938 23.179688 -23.753906 23.890625 -22.515625 L 20.921875 -20.5625 C 20.347656 -21.53125 19.765625 -22.265625 19.171875 -22.765625 C 18.585938 -23.265625 17.882812 -23.660156 17.0625 -23.953125 C 16.25 -24.242188 15.296875 -24.390625 14.203125 -24.390625 C 11.492188 -24.390625 9.503906 -23.488281 8.234375 -21.6875 C 6.960938 -19.882812 6.328125 -17.160156 6.328125 -13.515625 C 6.328125 -9.921875 6.953125 -7.207031 8.203125 -5.375 C 9.453125 -3.550781 11.460938 -2.640625 14.234375 -2.640625 C 15.773438 -2.640625 17.109375 -2.941406 18.234375 -3.546875 C 19.367188 -4.148438 20.390625 -5.195312 21.296875 -6.6875 Z M 24.28125 -4.734375 "/></g></g></g><g fill="#ffffff" fill-opacity="1"><g transform="translate(1056.758414, 889.557671)"><g><path d="M 13.046875 0 L 2 0 L 2 -3.125 L 5.71875 -3.125 L 5.71875 -23.96875 L 2 -23.96875 L 2 -27.03125 L 13.046875 -27.03125 L 13.046875 -23.96875 L 9.3125 -23.96875 L 9.3125 -3.125 L 13.046875 -3.125 Z M 13.046875 0 "/></g></g></g><g fill="#ffffff" fill-opacity="1"><g transform="translate(1071.795995, 889.557671)"><g><path d="M 24.3125 -13.515625 C 24.3125 -8.660156 23.394531 -5.097656 21.5625 -2.828125 C 19.738281 -0.566406 16.992188 0.5625 13.328125 0.5625 C 9.597656 0.5625 6.832031 -0.585938 5.03125 -2.890625 C 3.226562 -5.191406 2.328125 -8.734375 2.328125 -13.515625 C 2.328125 -18.253906 3.21875 -21.785156 5 -24.109375 C 6.78125 -26.429688 9.554688 -27.59375 13.328125 -27.59375 C 17.035156 -27.59375 19.789062 -26.453125 21.59375 -24.171875 C 23.40625 -21.898438 24.3125 -18.347656 24.3125 -13.515625 Z M 20.53125 -13.515625 C 20.53125 -17.253906 19.96875 -20 18.84375 -21.75 C 17.71875 -23.507812 15.878906 -24.390625 13.328125 -24.390625 C 10.773438 -24.390625 8.929688 -23.507812 7.796875 -21.75 C 6.671875 -20 6.109375 -17.253906 6.109375 -13.515625 C 6.109375 -9.753906 6.675781 -7 7.8125 -5.25 C 8.957031 -3.507812 10.796875 -2.640625 13.328125 -2.640625 C 15.835938 -2.640625 17.664062 -3.503906 18.8125 -5.234375 C 19.957031 -6.960938 20.53125 -9.722656 20.53125 -13.515625 Z M 14.203125 -30.15625 L 11.421875 -30.15625 L 14.90625 -37.203125 L 19.515625 -37.203125 Z M 14.203125 -30.15625 "/></g></g></g><g fill="#ffffff" fill-opacity="1"><g transform="translate(1098.434039, 889.557671)"><g><path d="M 19.234375 0 L 7.03125 -23.203125 L 7.03125 0 L 3.5625 0 L 3.5625 -27.03125 L 8.84375 -27.03125 L 20.046875 -5.796875 L 20.046875 -27.03125 L 23.515625 -27.03125 L 23.515625 0 Z M 19.234375 0 "/></g></g></g><g fill="#e81c17" fill-opacity="1"><g transform="translate(1196.376842, 884.278032)"><g><path d="M 3.234375 0 L 3.234375 -25.703125 L 8.6875 -25.703125 L 8.6875 0 Z M 3.234375 0 "/></g></g><g transform="translate(1208.29481, 884.278032)"><g><path d="M 18.96875 0 L 17.109375 -6.125 L 7.734375 -6.125 L 5.875 0 L 0 0 L 9.078125 -25.8125 L 15.734375 -25.8125 L 24.84375 0 Z M 15.796875 -10.6875 C 14.078125 -16.226562 13.109375 -19.363281 12.890625 -20.09375 C 12.671875 -20.820312 12.515625 -21.394531 12.421875 -21.8125 C 12.035156 -20.3125 10.929688 -16.601562 9.109375 -10.6875 Z M 15.796875 -10.6875 "/></g></g></g><g transform="matrix(1, 0, 0, 1, 471, 775)"><g clip-path="url(#2ec4d1c3f4)"><g fill="#ffffff" fill-opacity="1"><g transform="translate(0.342297, 98.496013)"><g><path d="M 6.734375 -4.703125 C 6.734375 -6.679688 7.179688 -8.175781 8.078125 -9.1875 C 8.984375 -10.207031 10.28125 -10.71875 11.96875 -10.71875 C 13.675781 -10.71875 15.007812 -10.207031 15.96875 -9.1875 C 16.9375 -8.175781 17.421875 -6.679688 17.421875 -4.703125 C 17.421875 -2.773438 16.929688 -1.296875 15.953125 -0.265625 C 14.984375 0.765625 13.65625 1.28125 11.96875 1.28125 C 10.457031 1.28125 9.207031 0.816406 8.21875 -0.109375 C 7.226562 -1.035156 6.734375 -2.566406 6.734375 -4.703125 Z M 6.734375 -4.703125 "/></g></g></g></g></g><g transform="matrix(1, 0, 0, 1, 741, 778)"><g clip-path="url(#3dd8943035)"><g fill="#ffffff" fill-opacity="1"><g transform="translate(0.155126, 97.775778)"><g><path d="M 6.734375 -4.703125 C 6.734375 -6.679688 7.179688 -8.175781 8.078125 -9.1875 C 8.984375 -10.207031 10.28125 -10.71875 11.96875 -10.71875 C 13.675781 -10.71875 15.007812 -10.207031 15.96875 -9.1875 C 16.9375 -8.175781 17.421875 -6.679688 17.421875 -4.703125 C 17.421875 -2.773438 16.929688 -1.296875 15.953125 -0.265625 C 14.984375 0.765625 13.65625 1.28125 11.96875 1.28125 C 10.457031 1.28125 9.207031 0.816406 8.21875 -0.109375 C 7.226562 -1.035156 6.734375 -2.566406 6.734375 -4.703125 Z M 6.734375 -4.703125 "/></g></g></g></g></g><g transform="matrix(1, 0, 0, 1, 1147, 778)"><g clip-path="url(#21fa3ff057)"><g fill="#ffffff" fill-opacity="1"><g transform="translate(0.394349, 97.775778)"><g><path d="M 6.734375 -4.703125 C 6.734375 -6.679688 7.179688 -8.175781 8.078125 -9.1875 C 8.984375 -10.207031 10.28125 -10.71875 11.96875 -10.71875 C 13.675781 -10.71875 15.007812 -10.207031 15.96875 -9.1875 C 16.9375 -8.175781 17.421875 -6.679688 17.421875 -4.703125 C 17.421875 -2.773438 16.929688 -1.296875 15.953125 -0.265625 C 14.984375 0.765625 13.65625 1.28125 11.96875 1.28125 C 10.457031 1.28125 9.207031 0.816406 8.21875 -0.109375 C 7.226562 -1.035156 6.734375 -2.566406 6.734375 -4.703125 Z M 6.734375 -4.703125 "/></g></g></g></g></g></svg>